<?xml version="1.0" encoding="utf-8"?>
<!-- Generator: Adobe Illustrator 17.1.0, SVG Export Plug-In . SVG Version: 6.00 Build 0)  -->
<!DOCTYPE svg PUBLIC "-//W3C//DTD SVG 1.1//EN" "http://www.w3.org/Graphics/SVG/1.1/DTD/svg11.dtd">
<svg version="1.1" id="Layer_1" xmlns="http://www.w3.org/2000/svg" xmlns:xlink="http://www.w3.org/1999/xlink" x="0px" y="0px"
	 viewBox="0 0 32 32" enable-background="new 0 0 32 32" xml:space="preserve">
<g>
	<g>
		<path fill="#F1F1F1" d="M28,10.4c0.3,0.4,0.5,0.8,0.8,1.1c0.3,0.4,0.4,0.9,0.4,1.3c0,2.3,0,4.6,0,6.9c0,1.2-0.4,2.2-1.5,2.9
			c-0.2,0.1-0.4,0.3-0.5,0.5c-1.3,1.7-2.9,2-5,1.2c-1-1.1-2.2-2-3.1-3.2C19,21,19,20.7,18.8,20.4c-1.1,1-2.1,2.1-3.2,3.1
			c-0.8,0.8-1.6,1.6-2.4,2.3c-0.8,0.7-1.5,1.4-2.2,2.2c-0.5,0.5-0.9,1.1-1.6,1.2c-1.6,0.3-3.2,0.5-4.8-0.2c-1.3-0.9-1.8-2.2-1.6-3.7
			c0-0.5,0-1,0-1.5c0.1-1.1,0.4-2,1.4-2.5c0.2-0.1,0.4-0.3,0.6-0.5c0.1-0.2,0.2-0.4,0.3-0.5c1-0.6,1.7-1.6,2.5-2.4
			c0.7-0.7,1.6-1.3,2.1-2.2c0.1-0.2,0.3-0.5,0.6-0.6c0.7-0.3,1-0.9,1.3-1.4c0.1-0.3,0.3-0.4,0.5-0.4c-0.4,0.1-0.9,0-1.3-0.3
			c-0.9-0.6-1.4-1.6-2.3-2.3c-1.4-1-1.3-4.8,0.6-5.5C9.6,5.2,9.7,5,9.8,4.8c0.5-1,1.4-1.4,2.5-1.4c2.4,0,4.9,0,7.3,0
			c1,0,1.8,0.4,2.3,1.2C22.2,4.9,22.5,5,22.9,5c0.3,0,0.5,0,0.8,0c1.5-0.1,2.8,0.4,3.5,1.8c0.5,0.6,0.4,1.3,0.4,2
			C27.6,9.3,27.6,9.9,28,10.4z"/>
		<path fill="#A6A6A6" d="M4.6,29.1c1.2,0.2,2.5,0.2,3.7,0.2c1.1,0,2-0.4,2.6-1.5c0.2-0.4,0.6-0.4,0.8-0.7c0.7-1,1.7-1.7,2.5-2.5
			c0.7-0.7,1.4-1.5,2.2-2.1c0.2-0.1,0.4-0.2,0.5-0.4c0.5-0.9,1.4-1.3,2.1-2.1c0.1,0.5,0.1,0.8,0.2,1.2c-1.2,0.8-1.9,2-3,2.9
			c-0.9,0.8-1.5,1.8-2.6,2.4c-0.5,0.3-0.5,0.9-0.9,1.2c-0.6,0.4-1,0.9-1.5,1.4c-0.4,0.6-1.1,0.9-1.9,0.9c-1,0-2,0.1-3,0
			C5.7,29.9,5.1,29.7,4.6,29.1z"/>
		<path fill="#A6A6A6" d="M22.2,24.3c0.7,0.1,1.4,0.2,2.1,0.2c0.1,0,0.2,0,0.3,0c0.7-0.1,1.5-0.3,1.9-0.9c0.8-1.2,2.5-1.8,2.5-3.6
			c-0.1-2.4,0-4.9,0-7.3c0-0.4-0.1-0.8-0.2-1.2c0.7,0.3,0.8,1,0.8,1.6c0,2.6,0,5.1,0,7.7c0,0.7-0.3,1.5-0.9,1.9
			c-1.2,0.8-1.7,2.5-3.4,2.4C24.2,25.1,23.1,25.2,22.2,24.3z"/>
		<path fill="#A6A6A6" d="M28,10.4c-0.5-0.1-0.7-0.5-0.6-1c0-0.9,0.1-1.8-0.1-2.7c0.7,0.4,0.7,1,0.8,1.7C28,9.1,28,9.7,28,10.4z"/>
		<path fill="#ADADAD" d="M11,13.1c0.4,0.1,0.9,0.1,1.3,0.2c-0.1,0.3-0.3,0.3-0.5,0.4C11.6,13.5,11.2,13.5,11,13.1z"/>
		<path fill="#40396E" d="M20.6,16.2c-0.4,0-0.7,0.3-1,0.3c-0.2,0-0.3,0.1-0.3,0.3c0,0.1,0,0.2,0,0.3c-0.2,0.8-1.3,0.7-1.5,1.2
			c-0.3,0.6-0.5,1.3-1.3,1.4c-0.4,0-0.4,0.2-0.4,0.5c0,0.3-0.2,0.7-0.4,0.7c-1.3,0.1-1.1,1.8-2.3,2c-0.4,0-0.5,0.1-0.5,0.5
			c0,0,0,0.1,0,0.1c-0.2,0.8-1.2,0.8-1.5,1.2c-0.4,0.6-0.4,1.3-1.2,1.4c-0.4,0-0.4,0.2-0.5,0.5c-0.1,0.7-0.6,1.1-1.3,1.1
			c-0.8,0-1.7,0-2.5,0c-0.8,0-1.3-0.5-1.3-1.4c0-0.8,0-1.6,0-2.4c0-0.7,0.4-1.2,1.1-1.3c0.4,0,0.5-0.2,0.5-0.5c0,0,0-0.1,0-0.1
			c0.2-0.8,1.2-0.8,1.5-1.2c0.3-0.6,0.4-1.3,1.2-1.4c0.3,0,0.5-0.1,0.5-0.4c0,0,0-0.1,0-0.1c0.2-0.8,1-0.8,1.4-1.2
			c0.4-0.4,0.4-1.3,1.2-1.4c0.4-0.1,0.5-0.1,0.6-0.5c0-0.6,0.5-1,1-1.1c0.4,0,0.5-0.1,0.6-0.5c0-0.4,0.3-0.9,0.7-0.9
			c0.9-0.1,0.9-0.8,1.2-1.5c-1.2,0-2.4,0-3.6,0c-0.9,0-1.3-0.3-1.5-1.2c-0.1-0.3-0.1-0.4-0.4-0.4C9.7,9.9,9.4,9.5,9.4,8.3
			c0-1.2,0.3-1.6,1.2-1.7c0.3-0.1,0.4-0.1,0.4-0.4C11.2,5.3,11.6,5,12.5,5c2.3,0,4.7,0,7,0c0.8,0,1.3,0.4,1.4,1.2
			c0,0.4,0.2,0.4,0.5,0.4c1,0,1.9,0,2.9,0c0.9,0,1.4,0.5,1.4,1.4c0,1,0,1.9,0,2.9c0,0.3,0,0.4,0.4,0.5c0.9,0.1,1.2,0.6,1.2,1.4
			c0,2.3,0,4.7,0,7c0,0.4-0.1,1-0.4,1c-1.4,0.1-1.2,2.1-2.7,2c-1.4-0.1-1.5-0.1-2-1.4c-0.1-0.3-0.3-0.2-0.4-0.2
			c-0.8-0.1-1.2-0.6-1.2-1.4C20.6,18.6,20.6,17.4,20.6,16.2z"/>
		<path fill="#70BEFE" d="M12,7.5C12,5.9,12,5.9,13.6,5.9c1.8,0,3.5,0,5.3,0c1.1,0,1.1,0,1.1,1c0,0.2,0,0.4,0,0.6
			c0,0-0.1,0.1-0.1,0.1c-0.2,0.1-0.5,0.2-0.8,0.2c-2.1,0-4.2,0-6.3,0c-0.3,0-0.5,0-0.8-0.2C12.1,7.6,12,7.5,12,7.5z"/>
		<path fill="#70BEFE" d="M24.8,12.3c1.6,0.1,1.6,0.1,1.6,1.6c0,1.8,0,3.5,0,5.3c0,1.1,0,1.1-1,1.1c-0.2,0-0.4,0-0.6,0
			c0,0-0.1-0.1-0.1-0.1c-0.1-0.2-0.2-0.5-0.2-0.8c0-2.1,0-4.2,0-6.3c0-0.3,0-0.5,0.2-0.8C24.7,12.4,24.8,12.3,24.8,12.3z"/>
		<path fill="#70BEFE" d="M18.4,10.7c-1.7,0-3.5,0-5.2,0c-1.1,0-1.1,0-1.1-1.1c0-0.2,0-0.3,0-0.5c0,0,0.1-0.1,0.1-0.1
			c0.5-0.2,1-0.1,1.6-0.2c1.2,0,2.4,0,3.6,0c1.3,0,1.5,0.3,1.3,1.6C18.5,10.6,18.5,10.7,18.4,10.7z"/>
		<path fill="#70BEFE" d="M23.2,20.3c-1.6-0.1-1.6-0.1-1.6-1.6c0-1.6,0-3.2,0-4.8c0,0,0.1-0.1,0.1-0.1c1.3-0.4,1.8,0,1.8,1.3
			c0,1.4,0,2.8,0,4.2c0,0.3,0,0.6-0.2,0.9C23.3,20.3,23.2,20.3,23.2,20.3z"/>
		<path fill="#D37F56" d="M8.8,25.1c-0.1,1.6-0.1,1.6-1.7,1.6c-1.8,0-1.6,0.2-1.6-1.6c0-1.6,0-1.6,1.6-1.7c0,0,0.1,0.1,0.1,0.1
			C7.3,24.6,7.8,25,8.8,25.1C8.8,25.1,8.8,25.1,8.8,25.1z"/>
		<path fill="#D37F56" d="M21.6,7.5c0.5,0,1.1,0,1.6,0c0.3,0.5,0.2,1,0.1,1.5c0,0.1-0.1,0.2-0.2,0.2c-0.5,0.2-1,0.2-1.5,0
			c-0.1,0-0.1-0.1-0.2-0.2C21.4,8.5,21.3,8,21.6,7.5z"/>
		<path fill="#D37F56" d="M24.8,9.1c0,0.5,0,1.1,0,1.6c-0.5,0.3-1,0.2-1.5,0.1c-0.1,0-0.2-0.1-0.2-0.2c-0.1-0.5-0.2-1,0.1-1.5l0,0
			C23.7,8.8,24.2,8.8,24.8,9.1z"/>
		<path fill="#D37F56" d="M21.6,13.9c-0.5,0-1,0-1.6,0c0,0-0.1-0.1-0.1-0.1c-0.2-0.5-0.2-1,0-1.5c0.1-0.1,0.1-0.1,0.2-0.2
			c0.5-0.1,1.1-0.2,1.5,0.2C21.9,12.9,21.9,13.4,21.6,13.9L21.6,13.9z"/>
		<path fill="#D37E56" d="M15.2,15.5c0.1-1.5,0.1-1.5,1.6-1.6c0,0,0.1,0.1,0.1,0.1c0.2,0.5,0.2,1,0,1.4c0,0.1-0.1,0.1-0.2,0.2
			c-0.5,0.1-1,0.2-1.5,0C15.2,15.6,15.2,15.5,15.2,15.5z"/>
		<path fill="#FEB688" d="M24.8,9.1c-0.5,0-1.1,0-1.6,0c0-0.5,0-1.1,0-1.6C24.9,7.5,24.9,7.5,24.8,9.1z"/>
		<path fill="#D37E56" d="M20,13.9c-0.1,1.5-0.1,1.5-1.6,1.6c0,0-0.1-0.1-0.1-0.1c-0.2-0.5-0.2-1,0-1.5c0-0.1,0.1-0.1,0.2-0.2
			C19,13.7,19.5,13.6,20,13.9L20,13.9z"/>
		<path fill="#D37E56" d="M13.6,17.1c0.1-1.5,0.1-1.5,1.6-1.6c0,0,0,0,0,0c0.3,0.5,0.2,1,0.1,1.5c0,0.1-0.1,0.2-0.2,0.2
			c-0.5,0.2-1,0.2-1.5,0C13.6,17.2,13.6,17.1,13.6,17.1z"/>
		<path fill="#D37E56" d="M18.4,15.5c-0.1,1.5-0.1,1.5-1.6,1.6c0,0-0.1-0.1-0.1-0.1c-0.2-0.5-0.2-1,0.1-1.5l0,0
			C17.3,15.2,17.8,15.2,18.4,15.5L18.4,15.5z"/>
		<path fill="#D37E56" d="M12,18.7c0.1-1.5,0.1-1.5,1.6-1.6c0,0,0,0,0,0c0.3,0.5,0.2,1,0.1,1.5c0,0.1-0.1,0.2-0.2,0.2
			c-0.5,0.2-1,0.2-1.5,0C12,18.8,12,18.7,12,18.7z"/>
		<path fill="#D37E56" d="M16.8,17.1c-0.1,1.5-0.1,1.5-1.6,1.6c0,0-0.1-0.1-0.1-0.1c-0.2-0.5-0.2-1,0.1-1.5l0,0
			C15.7,16.8,16.2,16.8,16.8,17.1L16.8,17.1z"/>
		<path fill="#D37E56" d="M10.4,20.3c0.1-1.5,0.1-1.5,1.6-1.6c0,0,0,0,0,0c0.3,0.5,0.2,1,0.1,1.5c0,0.1-0.1,0.2-0.2,0.2
			c-0.5,0.2-1,0.2-1.5,0C10.4,20.4,10.4,20.3,10.4,20.3z"/>
		<path fill="#70BEFE" d="M21.6,7.5c0,0.5,0,1,0,1.6c-0.5,0.4-1.1,0.4-1.5,0c-0.4-0.4-0.4-1-0.1-1.5c0,0,0,0,0,0
			C20.5,7.5,21.1,7.5,21.6,7.5z"/>
		<path fill="#D37E56" d="M15.2,18.7c-0.1,1.5-0.1,1.5-1.6,1.6c0,0-0.1-0.1-0.1-0.1c-0.2-0.5-0.2-1,0.1-1.5l0,0
			C14.1,18.4,14.6,18.4,15.2,18.7L15.2,18.7z"/>
		<path fill="#D37E56" d="M8.8,21.9c0.1-1.5,0.1-1.5,1.6-1.6c0,0,0,0,0,0c0.3,0.5,0.2,1,0.1,1.5c0,0.1-0.1,0.2-0.2,0.2
			c-0.5,0.2-1,0.2-1.5,0C8.8,22,8.8,21.9,8.8,21.9z"/>
		<path fill="#D37F56" d="M18.4,12.3c0-0.5,0-1,0-1.6c0,0,0-0.1,0-0.1c0.5-0.3,1.1-0.4,1.5,0.1c0.4,0.4,0.4,1,0,1.5l0,0
			c-0.5,0.3-1,0.3-1.5,0.1C18.4,12.4,18.4,12.3,18.4,12.3z"/>
		<path fill="#D37E56" d="M13.6,20.3c-0.1,1.5-0.1,1.5-1.6,1.6c0,0-0.1-0.1-0.1-0.1c-0.2-0.5-0.2-1,0.1-1.5l0,0
			C12.5,20,13,20,13.6,20.3L13.6,20.3z"/>
		<path fill="#D37E56" d="M7.2,23.5C7.2,22,7.2,22,8.8,21.9c0,0,0,0,0,0c0.3,0.5,0.2,1,0.1,1.5c0,0.1-0.1,0.2-0.2,0.2
			C8.2,23.8,7.7,23.9,7.2,23.5L7.2,23.5z"/>
		<path fill="#70BEFE" d="M23.2,10.7c0.5,0,1,0,1.6,0c0,0.5,0,1.1,0,1.6c0,0,0,0,0,0c-0.5,0.3-1.1,0.4-1.5-0.1
			C22.8,11.8,22.8,11.3,23.2,10.7z"/>
		<path fill="#D37E56" d="M12,21.9c-0.1,1.5-0.1,1.5-1.6,1.6c0,0-0.1-0.1-0.1-0.1c-0.2-0.5-0.2-1,0.1-1.5l0,0
			C10.9,21.6,11.4,21.6,12,21.9L12,21.9z"/>
		<path fill="#D37E56" d="M16.8,13.9c0.1-1.5,0.1-1.5,1.6-1.6c0,0,0,0,0,0c0.3,0.5,0.3,1.1,0,1.6l0,0C17.9,14.3,17.4,14.3,16.8,13.9
			L16.8,13.9z"/>
		<path fill="#D37E56" d="M10.4,23.5c-0.1,1.5-0.1,1.5-1.6,1.6c0,0,0,0,0,0c-0.3-0.5-0.3-1.1,0-1.6l0,0C9.3,23.2,9.8,23.2,10.4,23.5
			L10.4,23.5z"/>
		<path fill="#70BEFE" d="M24.8,20.3c0,0.3,0,0.5,0,0.8c0.1,0.6-0.2,0.8-0.8,0.8c-0.6,0-0.9-0.2-0.8-0.8c0-0.3,0-0.5,0-0.8
			c0,0,0,0,0,0C23.7,20,24.3,20,24.8,20.3L24.8,20.3z"/>
		<path fill="#70BEFE" d="M12,9.1c-0.2,0-0.5,0-0.7,0c-0.6,0.1-0.9-0.1-0.9-0.8c0-0.6,0.2-0.9,0.8-0.8c0.3,0,0.5,0,0.8,0
			c0,0,0,0,0,0C12.3,8.1,12.3,8.6,12,9.1L12,9.1z"/>
		<path fill="#D8EDFE" d="M12,9.1c0-0.5,0-1,0-1.6c2.7,0,5.3,0,8,0c0,0,0,0.1,0,0.1C20,9.1,20,9.1,21.6,9.1c0,0,0,0,0,0
			c0.1,1,0.6,1.5,1.6,1.6c0,0,0,0,0,0c0,1.5,0,1.5,1.6,1.6c0,2.7,0,5.3,0,8c-0.5,0-1,0-1.6,0c0-1.7,0-3.5,0-5.2c0-1.2,0-1.2-1.2-1.2
			c-0.1,0-0.3,0-0.4,0c0,0,0-0.1,0-0.1c-0.1-1.5-0.1-1.5-1.6-1.5c0-1.5,0-1.5-1.6-1.6c-0.1-1.6-0.1-1.6-1.7-1.6
			C15.2,9.1,13.6,9.1,12,9.1z"/>
		<path fill="#FEB688" d="M8.8,23.5c0,0.5,0,1.1,0,1.6c-1.6,0.1-1.6,0.1-1.6-1.6C7.8,23.5,8.3,23.5,8.8,23.5z"/>
		<path fill="#FEB689" d="M23.2,10.7c-1.7,0.1-1.7,0.1-1.6-1.6c0.5,0,1.1,0,1.6,0C23.2,9.6,23.2,10.2,23.2,10.7z"/>
		<path fill="#FEB688" d="M18.4,13.9c0-0.5,0-1.1,0-1.6c0.5,0,1.1,0,1.6,0c0,0.5,0,1.1,0,1.6C19.4,13.9,18.9,13.9,18.4,13.9z"/>
		<path fill="#FEB688" d="M16.8,13.9c0.5,0,1.1,0,1.6,0c0,0.5,0,1.1,0,1.6c-0.5,0-1.1,0-1.6,0C16.8,15,16.8,14.5,16.8,13.9z"/>
		<path fill="#FEB688" d="M16.8,17.1c-0.5,0-1.1,0-1.6,0c0-0.5,0-1.1,0-1.6c0.5,0,1.1,0,1.6,0C16.8,16,16.8,16.6,16.8,17.1z"/>
		<path fill="#FEB688" d="M15.2,18.7c-0.5,0-1.1,0-1.6,0c0-0.5,0-1.1,0-1.6c0.5,0,1.1,0,1.6,0C15.2,17.6,15.2,18.2,15.2,18.7z"/>
		<path fill="#FEB688" d="M13.6,20.3c-0.5,0-1.1,0-1.6,0c0-0.5,0-1.1,0-1.6c0.5,0,1.1,0,1.6,0C13.6,19.2,13.6,19.8,13.6,20.3z"/>
		<path fill="#FEB688" d="M12,21.9c-0.5,0-1.1,0-1.6,0c0-0.5,0-1.1,0-1.6c0.5,0,1.1,0,1.6,0C12,20.8,12,21.4,12,21.9z"/>
		<path fill="#FEB688" d="M10.4,23.5c-0.5,0-1.1,0-1.6,0c0-0.5,0-1.1,0-1.6c0.5,0,1.1,0,1.6,0C10.4,22.4,10.4,23,10.4,23.5z"/>
	</g>
</g>
</svg>
