<?xml version="1.0" encoding="utf-8"?>
<!-- Generator: Adobe Illustrator 17.1.0, SVG Export Plug-In . SVG Version: 6.00 Build 0)  -->
<!DOCTYPE svg PUBLIC "-//W3C//DTD SVG 1.1//EN" "http://www.w3.org/Graphics/SVG/1.1/DTD/svg11.dtd">
<svg version="1.1" id="Layer_1" xmlns="http://www.w3.org/2000/svg" xmlns:xlink="http://www.w3.org/1999/xlink" x="0px" y="0px"
	 viewBox="0 0 32 32" enable-background="new 0 0 32 32" xml:space="preserve">
<g>
	<g>
		
		<path fill="#36B249" d="M16.4,2.9c2.6,0.1,5.4-0.1,8.1,0.3c3.5,0.5,4.9,1.9,5.2,5.4c0.4,5.3,0.4,10.5,0,15.8
			c-0.3,3.5-1.7,5.1-5.2,5.4c-5.7,0.5-11.3,0.5-17-0.1c-2.5-0.3-4-2-4.2-4.5c-0.5-5.8-0.5-11.6,0-17.4c0.2-2.6,1.9-4.2,4.5-4.5
			C10.6,2.8,13.5,3,16.4,2.9z"/>
		<path fill="#FEFEFE" d="M19.5,11.6c-1.5-0.5-3.1-0.1-4.7-0.2c-0.8,0-0.6,0.6-0.6,1.1c0,2.5,0,5,0,7.6c0,4.2-2.4,6.3-6.6,6.1
			c-1.3-0.1-2-0.5-2.1-1.9c-0.1-0.8-0.2-1.6-0.1-2.5c4.3,1,4.9,0.5,4.9-3.9c0-1.7,0-3.4,0-5c0-0.8-0.2-0.9-0.9-0.7
			c-1.9,0.5-3.1,1.9-4.1,3.4C4.4,12,5.5,9.9,8.6,8.5c2-0.9,4.2-0.9,6.4-1c1.7-0.1,3.5-0.1,5.2,0c1.9,0.1,3.7-0.1,5.3-1.3
			c0.2-0.2,0.4-0.3,0.8-0.1c1.2,0.7,1.4,3.1,0.3,3.9c-0.4,0.2-0.8,0.6-1.2,0.6c-2.1,0.2-2,1.5-2,3.1c0.1,2.4,0.1,4.7,0,7.1
			c0,1,0.3,1.3,1.2,1.2c0.2,0,0.5,0,0.7,0c2.4,0,2.3,0,1.9,2.4c-0.1,0.8-0.4,1.2-1.3,1.2c-2.1-0.2-4.3,0.3-6.4-0.3
			C19.3,20.6,19.4,16.1,19.5,11.6z"/>
		<path fill="#1EAD37" d="M19.5,11.6c0,4.5,0,9.1,0,13.6c-0.3-0.3-0.3-0.6-0.3-1c0-3.9,0-7.9,0-11.8C19.3,12.1,19.2,11.8,19.5,11.6z
			"/>
	</g>
</g>
</svg>
