<?xml version="1.0" encoding="utf-8"?>
<!-- Generator: Adobe Illustrator 17.1.0, SVG Export Plug-In . SVG Version: 6.00 Build 0)  -->
<!DOCTYPE svg PUBLIC "-//W3C//DTD SVG 1.1//EN" "http://www.w3.org/Graphics/SVG/1.1/DTD/svg11.dtd">
<svg version="1.1" id="Layer_1" xmlns="http://www.w3.org/2000/svg" xmlns:xlink="http://www.w3.org/1999/xlink" x="0px" y="0px"
	 viewBox="0 0 32 32" style="enable-background:new 0 0 32 32;" xml:space="preserve">
<g>
	<g>
		<path style="fill:#2A2856;" d="M4.4969797,19.1606083c0.1722474-0.1855545,0.0451102-0.3516521,0.0128727-0.5553417
			c-0.4507151-2.8478594-0.3211055-5.6449652,1.1041913-8.224988c1.7947507-3.248795,4.499476-5.3681192,8.1835327-6.0467243
			c3.7041359-0.6823025,7.1364555,0.0555058,10.0496769,2.5060754c2.1527653,1.8108859,3.5569458,4.1271224,3.9954967,6.9632869
			c0.4136658,2.6751966,0.2055721,5.2685137-1.0904388,7.68859c-1.8146915,3.3886299-4.5763912,5.5449028-8.4084911,6.1823826
			c-4.4021254,0.7323074-8.1697989-0.505827-11.1918926-3.8211823c-0.641541-0.7037964-1.1492224-1.5296097-1.7183771-2.2990799
			c0.014123-0.2753143,0.2708249-0.3788338,0.4044166-0.5695744c0.4271932-0.6099262,0.2915707-1.2428856-0.3426099-1.6268539
			C5.1837187,19.1685123,4.8438444,19.1542568,4.4969797,19.1606083z M15.0345316,11.9938021
			c-0.1276379,0.0108662-0.2484283,0.0354652-0.3196831,0.1594048c-0.1285181,0.0100002-0.2497702,0.0346708-0.3214207,0.1593847
			c-0.1067514,0.0532436-0.2135038,0.1064882-0.3201303,0.1598721c-0.1063862,0.053277-0.2127724,0.106555-0.3191595,0.159831
			c-0.2489185,0.0360432-0.470583,0.1266069-0.6405821,0.3204165c-0.1063633,0.053339-0.2127266,0.1066771-0.3190908,0.1600161
			c-0.8362093,0.3944864-1.6871595,0.7609491-2.5046911,1.1909456c-0.9086647,0.477932-2.215353,0.6554432-2.6246252,1.50315
			c-0.4177728,0.8653154-0.12644,2.0734415-0.1427879,3.1315298c-0.0020375,0.1319027-0.0065084,0.2687302,0.0239825,0.3951111
			c0.0584235,0.242157,0.2257867,0.3453503,0.4753318,0.3058758l-0.0081348,0.0195599
			c0.3790617,0.3836365,0.7763205,0.6214886,1.2611914,0.1574173c0.1459608-0.05303,0.2919226-0.1060619,0.4378834-0.1590939
			c0.2870111-0.0011196,0.5740232-0.0022392,0.8610334-0.0033588l0.0031834,0.0035343
			c0.1027584,0.2374115,0.3116493,0.1690769,0.4957724,0.1720982c0.4195137,0.2009983,0.8390293,0.4019985,1.2585449,0.6029968
			c0.1543694,0.3399315,0.1529903,0.7000637,0.1525421,1.0637417c-0.0002985,0.2424068-0.0807734,0.5544319,0.3309221,0.5648098
			l-0.0000601-0.0026722c0.0535412,0.1585541,0.1785469,0.1749477,0.3191013,0.1604099l0.0221062-0.0171604
			c0.3430433,0.5139256,0.711113,0.3902073,1.0878925,0.0426159c0.128871-0.0089321,0.25033-0.0327244,0.3202648-0.1597843
			c0.6044483-0.4214401,0.1813898-1.0624428,0.337121-1.5802097c0.1650839-0.0317898,0.355195-0.0000134,0.4612474-0.1816711
			c0.1296539-0.0073624,0.2516689-0.0300159,0.3200083-0.1600132c0.1295605-0.0073318,0.2512283-0.0304222,0.3195496-0.1600342
			c0.1299934-0.0066738,0.2515469-0.0302258,0.3199978-0.1599903c0.1299896-0.0066872,0.2515507-0.0302296,0.3199997-0.1599998
			c0.1299896-0.0066872,0.2515526-0.0302296,0.3199997-0.1599998c0.1299915-0.0066853,0.2515488-0.0302334,0.3199978-0.1600018
			c0.1299915-0.0066776,0.2515411-0.0302429,0.320034-0.1599636c0.1299763-0.006712,0.2515221-0.0302887,0.3199978-0.1600018
			c0.1299763-0.0067139,0.251524-0.0302811,0.3199997-0.1599979c0.1299782-0.0067101,0.2515221-0.0302906,0.3199997-0.1599998
			c0.1299782-0.006712,0.2515221-0.0302906,0.3199997-0.1600018c0.1299782-0.0067101,0.2515221-0.0302887,0.3199997-0.1599998
			c0.1299782-0.0067101,0.2515221-0.0302906,0.3199997-0.1599998c0.1299782-0.0067101,0.2515221-0.0302906,0.3199997-0.1599998
			c0.1299782-0.0067101,0.2515221-0.0302887,0.3200016-0.1599979c0.1299763-0.006712,0.2515221-0.0302868,0.3200016-0.159996
			c0.1299782-0.0067234,0.2515354-0.030283,0.319973-0.1600418c0.1299896-0.0066853,0.2515488-0.0302372,0.3199997-0.1599998
			c0.1300831-0.006712,0.2519875-0.0298157,0.3204498-0.1599731c0.1295586-0.0073299,0.2512226-0.030426,0.3195515-0.1600266
			c0.1299915-0.0066814,0.2515469-0.0302372,0.3199997-0.1599998c0.1300011-0.0066795,0.2515602-0.0302467,0.320015-0.1600151
			c0.489563-0.2075119,0.9416714-0.1611938,1.3987446,0.1295948c0.3411884,0.2170658,0.7252235,0.3529911,1.0039005-0.1260471
			c0.42589-0.0416393,0.4785843-0.3345108,0.476305-0.6828651c-0.0062313-0.9521151-0.0210457-1.9048347,0.0058517-2.8562307
			c0.0138912-0.4913368-0.1597443-0.7539005-0.6593952-0.773941c-0.3464127-0.0726528-0.6634178-0.2126694-0.9527969-0.4159613
			c-0.026907-0.1087599-0.0785961-0.1862507-0.2084084-0.165163l-0.0440102,0.0268507
			c0.0410843-0.2729702-0.1006794-0.2384834-0.2687225-0.1598129l-0.0433388-0.0027552
			c0.0314369-0.2655516-0.1072979-0.2385511-0.2757778-0.1604137l-0.0407028-0.001812
			c0.0272179-0.2619238-0.1108208-0.2370119-0.2785854-0.1605043l-0.038868-0.000246
			c0.0261841-0.2593861-0.1150417-0.2358131-0.282835-0.1673374l-0.0254383,0.0014849
			c0.0112038-0.2481651-0.1260681-0.2329588-0.292984-0.1651697l-0.017664,0.0019722
			c-0.0141106-0.3260021-0.2596016-0.2132254-0.4366417-0.2302494c-1.9560184-1.0883455-1.9563923-1.0890932-3.9198647-0.1103735
			c-0.2790108,0.1390762-0.5523434,0.2895451-0.8283024,0.434741c-0.2742977-0.0124884-0.4955196,0.0968742-0.6778498,0.2954102
			c-0.1277533,0.0111694-0.2494917,0.0343885-0.320055,0.1599951c-0.1277351,0.0111942-0.2494612,0.0344067-0.3198919,0.1601171
			C15.2267284,11.8448524,15.1050024,11.8680649,15.0345316,11.9938021z"/>
		<path style="fill:#A77B4B;" d="M26.6917553,3.6938574c0.6902447-0.0157328,1.2773418,0.5462987,1.2931366,1.23792
			c0.0157413,0.6893816-0.5474873,1.2780585-1.2378845,1.2938108c-0.6895676,0.0157332-1.2768898-0.5471215-1.2924538-1.2386127
			C25.4389915,4.2956395,25.9996605,3.7096322,26.6917553,3.6938574z"/>
		<path style="fill:#A77B4B;" d="M4.4969797,19.1606083c0.3468647-0.0063515,0.686739,0.0079041,0.9983778,0.1965904
			c0.6341805,0.3839684,0.769803,1.0169277,0.3426099,1.6268539c-0.1335917,0.1907406-0.3902936,0.29426-0.4044166,0.5695744
			c-0.6041136,0.040453-1.1718092-0.0197868-1.5282207-0.600111C3.515518,20.3188019,3.7190487,19.7125607,4.4969797,19.1606083z"/>
		<path style="fill:#A77B4B;" d="M27.9859562,7.2071605c0.3693027,0.038672,0.6107483,0.234643,0.6315823,0.6009121
			c0.0211449,0.3717446-0.2097282,0.6209054-0.567976,0.6471229c-0.4045429,0.0296059-0.66609-0.2131777-0.6675587-0.6234012
			C27.3806782,7.4615993,27.6305275,7.267519,27.9859562,7.2071605z"/>
		<path style="fill:#A77B4B;" d="M8.1410103,27.3592968c0.4039164,0.0720024,0.6412325,0.2744999,0.6364622,0.6446323
			c-0.004735,0.3673306-0.2378712,0.6098347-0.6035433,0.6122646c-0.4055367,0.002697-0.6538658-0.2498779-0.631958-0.6602783
			C7.5617976,27.5845165,7.834796,27.418684,8.1410103,27.3592968z"/>
		<path style="fill:#A77B4B;" d="M26.6840591,24.4896412c-0.1013947,0.3686695-0.2977905,0.6193657-0.6769981,0.5670605
			c-0.3184338-0.0439186-0.5440998-0.27314-0.5089455-0.609766c0.0373573-0.357748,0.2778778-0.5904922,0.6543217-0.5463066
			C26.4816113,23.93927,26.6363621,24.1908417,26.6840591,24.4896412z"/>
		<path style="fill:#522F2D;" d="M24.6272678,12.4930296c0.499651,0.0200405,0.6732864,0.2826042,0.6593952,0.773941
			c-0.0268974,0.951396-0.0120831,1.9041157-0.0058517,2.8562307c0.0022793,0.3483543-0.050415,0.6412258-0.476305,0.6828651
			c-0.0158539-0.0215092-0.0317211-0.0430069-0.0473232-0.0640564c0.3931847-0.5541878,0.1541557-1.1502466,0.1728878-1.8105192
			c-0.2912712,0.130496-0.508873,0.2185802-0.7182178,0.3231897c-3.2354031,1.6167259-6.4698772,3.235323-9.7042046,4.8542042
			c-0.6470146,0.3238506-1.0041437,1.3649387-0.6761332,1.999773c0.0737801,0.1427975,0.2290325,0.0902786,0.3576422,0.0625744
			c0.0180902,0.024437,0.0362797,0.0487995,0.0545692,0.0730896c-0.376853,0.3475075-0.7449226,0.4712257-1.0881004-0.0424118
			c0.539217-0.5227127,0.426055-1.7164536-0.2120705-2.0323086c-1.4084377-0.6971436-2.8233719-1.3813858-4.2426691-2.0561409
			c-0.2517099-0.1196671-0.4802866-0.349102-0.8383894-0.2600517c0.0306153,0.5988235-0.1920662,1.2124424,0.1591778,1.7859306
			c-0.2495451,0.0394745-0.4169083-0.0637188-0.4753318-0.3058758c-0.0304909-0.1263809-0.0260201-0.2632084-0.0239825-0.3951111
			c0.0163479-1.0580883-0.2749848-2.2662144,0.1427879-3.1315298c0.4092722-0.8477068,1.7159605-1.025218,2.6246252-1.50315
			c0.8175316-0.4299965,1.6684818-0.7964592,2.5046911-1.1909456c0.0189953,0.0241709,0.0380554,0.0482912,0.0568829,0.0719681
			c-1.5328131,0.7930021-3.0653286,1.5864-4.685751,2.4253073c1.6523447,0.8277931,3.2452822,1.6065693,4.8173552,2.4254055
			c0.4579411,0.2385254,0.8265734,0.2002811,1.26859-0.0254593c2.2992907-1.1742668,4.6127138-2.320837,6.917098-3.4852018
			c0.2277336-0.1150713,0.5193253-0.1683502,0.608078-0.4712181c1.069376-0.2131319,1.9447784-0.8488569,2.8876266-1.336319
			C24.6850815,12.7064905,24.6410751,12.5705538,24.6272678,12.4930296z M22.0786304,15.7636623
			c0.8287888-0.0505924,1.4187069-0.6712694,2.1649837-0.9086828c0.6649456-0.2115383,0.7679462-0.6624165,0.738966-1.2805748
			c-0.0238953-0.5098038-0.1751404-0.5186367-0.5621872-0.3109112c-0.7734585,0.4151115-1.5620213,0.8020725-2.3443489,1.2006569
			c-2.4702148,1.2483997-4.9396667,2.4983149-7.4110184,3.744462c-1.0033388,0.5059204-1.0389175,0.5797062-0.7204494,1.7645702
			c2.671505-1.3442593,5.3314667-2.6819038,7.9888115-4.0247231C21.9967499,15.9164429,22.0308723,15.8265562,22.0786304,15.7636623
			z M13.3926144,20.016222c-0.0413446-0.5895309,0.3172941-1.175766-0.2498236-1.4765644
			c-1.7113371-0.907692-3.4588842-1.7471123-5.2198329-2.6268978c-0.1309066,1.3433857-0.1281304,1.3377266,0.9513812,1.8673706
			C10.3505602,18.5044155,11.8220444,19.2383537,13.3926144,20.016222z"/>
		<path style="fill:#D9DADC;" d="M24.6272678,12.4930296c0.0138073,0.0775242,0.0578136,0.2134609,0.037077,0.2241802
			c-0.9428482,0.487462-1.8182507,1.1231871-2.8875923,1.3362989c0.0000343-0.000021-0.0035934,0.0210285-0.0035934,0.0210285
			c0.0267239-0.1871471-0.0964508-0.1468363-0.2020683-0.1331644c-1.6671562-0.7894344-3.2846146-1.6726341-4.8844795-2.5890207
			c-0.0165405-0.0434361-0.0213032-0.0881262-0.0142841-0.1340723c0.275959-0.145196,0.5492916-0.2956648,0.8283024-0.434741
			c1.9634724-0.9787197,1.9638462-0.977972,3.919796,0.1103296c0.1050625,0.1534615,0.2698116,0.1939144,0.4367104,0.2302933
			c0,0,0.017664-0.0019722,0.0178471-0.0025749c0.097723,0.0548544,0.195261,0.1103134,0.2928009,0.1657724
			c0,0,0.0254383-0.0014849,0.0256748-0.0021019c0.0943584,0.0555744,0.1884766,0.111764,0.2825985,0.1679544
			c0,0,0.038868,0.000246,0.0391178-0.0003843c0.092947,0.0532904,0.1856422,0.107213,0.2783356,0.1611347
			c0,0,0.0407028,0.001812,0.0409718,0.0011749c0.0920143,0.0532598,0.1837597,0.1071558,0.2755089,0.1610508
			c0,0,0.0433388,0.0027552,0.043623,0.0021133c0.0896702,0.0530577,0.1790543,0.1067562,0.2684383,0.1604548
			c0,0,0.0440102-0.0268507,0.0441895-0.0271931c0.0695305,0.0549402,0.1388798,0.1102228,0.2082291,0.1655054
			C23.96385,12.2803602,24.2808552,12.4203768,24.6272678,12.4930296z"/>
		<path style="fill:#A77B4B;" d="M8.0216751,19.6393394c-0.351244-0.5734882-0.1285625-1.1871071-0.1591778-1.7859306
			c0.3581028-0.0890503,0.5866795,0.1403847,0.8383894,0.2600517c1.4192972,0.6747551,2.8342314,1.3589973,4.2426691,2.0561409
			c0.6381254,0.315855,0.7512875,1.5095959,0.2120705,2.0323086c0.0001345-0.000288-0.0219717,0.0168724-0.0220337,0.0169849
			c-0.0625772-0.1404305-0.1835232-0.1649418-0.3190393-0.1605225c0,0,0.0000601,0.0026722-0.0000257,0.0027466
			c-0.2022562-0.3107262-0.1513071-0.6608582-0.1546364-1.0021534c-0.002594-0.2658997,0.0296965-0.5481396-0.328742-0.6264725
			c-0.4195156-0.2009983-0.8390312-0.4019985-1.2588129-0.6029911c-0.1285763-0.163168-0.3115339-0.1690941-0.4955044-0.1721039
			c0,0-0.0031834-0.0035343-0.0032349-0.0033607c-0.3492107-0.4278622-0.8906698-0.5343857-1.3395929-0.7949448
			c-0.4238358-0.2459965-0.7813063-0.2800236-0.7398157,0.3833065c0.0231705,0.3704262-0.1651096,0.4571037-0.480648,0.4165001
			L8.0216751,19.6393394z"/>
		<path style="fill:#522F2D;" d="M24.8045063,16.8060665c-0.278677,0.4790382-0.6627121,0.3431129-1.0039005,0.1260471
			c-0.4570732-0.2907887-0.9091816-0.3371067-1.3987446-0.1295948c-0.0221024-0.0285797-0.0442295-0.0571384-0.0658817-0.085001
			c0.3659-0.2659016,0.766737-0.4635849,1.1723137-0.6641006c0.5861282-0.2897835,1.1032982-0.5969515,0.9857445,0.4870453
			c-0.0186424,0.1719112,0.1098804,0.2187786,0.2628651,0.2011127
			C24.7727852,16.7630596,24.7886524,16.7845573,24.8045063,16.8060665z"/>
		<path style="fill:#522F2D;" d="M8.0135403,19.6588993c0.3155384,0.0406036,0.5038185-0.0460739,0.480648-0.4165001
			c-0.0414906-0.6633301,0.31598-0.629303,0.7398157-0.3833065c0.4489231,0.2605591,0.9903822,0.3670826,1.3395929,0.7949448
			c-0.2869587,0.000946-0.5739708,0.0020657-0.8606787,0.0032616c-0.0730753-0.4380379-0.4546947-0.4629593-0.7679901-0.5207443
			c-0.1482725-0.0273476-0.1126366,0.1969414-0.1225595,0.3177891c-0.0279093,0.3398705,0.1795158,0.3936539,0.452363,0.3619747
			C8.7898607,20.2803879,8.392602,20.0425358,8.0135403,19.6588993z"/>
		<path style="fill:#A77B4B;" d="M9.2747316,19.8163185c-0.2728472,0.0316792-0.4802723-0.0221043-0.452363-0.3619747
			c0.009923-0.1208477-0.025713-0.3451366,0.1225595-0.3177891c0.3132954,0.057785,0.6949148,0.0827065,0.7679901,0.5207443
			C9.5666542,19.7102547,9.4206924,19.7632866,9.2747316,19.8163185z"/>
		<path style="fill:#522F2D;" d="M14.9014702,20.5047798c-0.1561623,0.517231,0.2668962,1.1582336-0.3375521,1.5796738
			c-0.0250854-0.0248451-0.050272-0.0495834-0.074996-0.0736866c0.2558117-0.4915314-0.2460108-1.1579666,0.3620129-1.568779
			C14.8675375,20.4631157,14.8843822,20.484045,14.9014702,20.5047798z"/>
		<path style="fill:#522F2D;" d="M12.3311491,20.4324932c0.3584385,0.0783329,0.326148,0.3605728,0.328742,0.6264725
			c0.0033293,0.3412952-0.0476198,0.6914272,0.1546364,1.0021534c-0.4116096-0.0104523-0.3311348-0.3224773-0.3308363-0.5648842
			C12.4841394,21.1325569,12.4855185,20.7724247,12.3311491,20.4324932z"/>
		<path style="fill:#522F2D;" d="M16.672327,11.2182798c-0.007019,0.0459461-0.0022564,0.0906363,0.0141869,0.1339664
			c-0.149044,0.2404451-0.4293137,0.138072-0.6308002,0.2414217c-0.0203114-0.026803-0.04076-0.0535021-0.0613422-0.0800972
			C16.1768074,11.3151541,16.3980293,11.2057915,16.672327,11.2182798z"/>
		<path style="fill:#522F2D;" d="M13.1134348,12.9525766c0.1701202-0.193675,0.3917847-0.2842388,0.6407032-0.320282
			c0.0186052,0.023695,0.0372801,0.0473347,0.0557432,0.0705433c-0.178216,0.1768799-0.4017515,0.2640324-0.6394882,0.3231192
			C13.1515598,13.001379,13.1325741,12.9769192,13.1134348,12.9525766z"/>
		<path style="fill:#522F2D;" d="M21.8571358,11.1241617c-0.1668987-0.0363789-0.3316479-0.0768318-0.4367104-0.2302933
			C21.5975342,10.9109364,21.8430252,10.7981596,21.8571358,11.1241617z"/>
		<path style="fill:#522F2D;" d="M10.5768318,19.6573982c0.1839705,0.0030098,0.3669281,0.0089359,0.4955044,0.1721039
			C10.8884811,19.8264751,10.6795902,19.8948097,10.5768318,19.6573982z"/>
		<path style="fill:#522F2D;" d="M15.3623343,20.3226261c-0.1061001,0.1816044-0.2962112,0.149828-0.4610796,0.1818848
			c-0.0168724-0.0204659-0.0337172-0.0413952-0.0501242-0.0622578c0.1494503-0.0680656,0.298707-0.1363945,0.4479637-0.2047234
			C15.3200979,20.2659531,15.3411779,20.2943172,15.3623343,20.3226261z"/>
		<path style="fill:#522F2D;" d="M14.3933058,12.3124552c0.0717726-0.1245775,0.1930246-0.1492481,0.3215427-0.1592484
			c0.0195227,0.0249939,0.0391016,0.0499449,0.0587378,0.0748501c-0.1077833,0.0522938-0.2155647,0.1045876-0.3233471,0.1568794
			C14.431406,12.3606625,14.4124279,12.3365011,14.3933058,12.3124552z"/>
		<path style="fill:#522F2D;" d="M14.0731726,12.4723234c0.1067514-0.0532436,0.2135038-0.1064882,0.3201942-0.1598005
			c0.0190611,0.0239782,0.0380392,0.0481396,0.0565844,0.0720234c-0.1069918,0.0528965-0.2136974,0.1061859-0.3204012,0.1594744
			C14.1109056,12.5200052,14.0921135,12.4961061,14.0731726,12.4723234z"/>
		<path style="fill:#522F2D;" d="M13.754138,12.6322947c0.1063871-0.0532761,0.2127733-0.106554,0.3190966-0.1599016
			c0.0188789,0.0237131,0.0376711,0.0476122,0.0560331,0.0712442c-0.1065569,0.0529366-0.2128296,0.1062565-0.3191042,0.1595755
			C13.7914181,12.6796293,13.7727432,12.6559896,13.754138,12.6322947z"/>
		<path style="fill:#522F2D;" d="M12.7944651,13.1127272c0.1063643-0.053339,0.2127275-0.1066771,0.3190308-0.1600828
			c0.0190783,0.0242748,0.038064,0.0487347,0.0566063,0.0729074c-0.1063461,0.0529089-0.2124023,0.1062231-0.3184576,0.1595364
			C12.8325205,13.1610184,12.8134604,13.136898,12.7944651,13.1127272z"/>
		<path style="fill:#522F2D;" d="M22.4018612,16.8025188c-0.0684547,0.1297684-0.1900139,0.1533356-0.320015,0.1600151
			c-0.0211945-0.0282364-0.0424061-0.0564594-0.0631638-0.0840092c0.1059151-0.0534534,0.2113571-0.1075668,0.3167953-0.1616821
			C22.3576317,16.7453804,22.3797588,16.7739391,22.4018612,16.8025188z"/>
		<path style="fill:#522F2D;" d="M22.0818462,16.962534c-0.0684528,0.1297626-0.1900082,0.1533184-0.3199997,0.1599998
			c-0.0211868-0.0282326-0.0423965-0.056448-0.0631504-0.083992c0.1068192-0.0531178,0.2131672-0.1068974,0.3195114-0.160675
			C22.0394402,16.9060745,22.0606518,16.9342976,22.0818462,16.962534z"/>
		<path style="fill:#522F2D;" d="M22.4760571,11.4532118c-0.0941219-0.0561905-0.1882401-0.11238-0.2825985-0.1679544
			C22.3610153,11.2173986,22.5022411,11.1938257,22.4760571,11.4532118z"/>
		<path style="fill:#522F2D;" d="M21.4423447,17.2826118c-0.068512,0.130106-0.1904163,0.1532097-0.3204994,0.1599216
			c-0.021143-0.0282078-0.042305-0.0563984-0.063015-0.0839176c0.1070652-0.052702,0.2136574-0.10606,0.3202496-0.1594181
			C21.4000969,17.2270565,21.4211864,17.2548618,21.4423447,17.2826118z"/>
		<path style="fill:#522F2D;" d="M21.1218452,17.4425335c-0.0684509,0.1297626-0.1900101,0.1533146-0.3199997,0.1599998
			c-0.021183-0.0282345-0.0423927-0.0564518-0.0631485-0.0839939c0.1068668-0.0530872,0.2132626-0.1068344,0.3196602-0.1605835
			C21.0795403,17.3861351,21.1007023,17.4143257,21.1218452,17.4425335z"/>
		<path style="fill:#522F2D;" d="M20.8018456,17.6025333c-0.0684376,0.1297588-0.1899948,0.1533184-0.319973,0.1600418
			c-0.0209064-0.0278091-0.0418358-0.0556011-0.0623169-0.0827236c0.106535-0.0535564,0.2126007-0.1077633,0.3186646-0.1619701
			C20.7594528,17.5460815,20.7806625,17.5742989,20.8018456,17.6025333z"/>
		<path style="fill:#522F2D;" d="M20.4818726,17.7625751c-0.0684795,0.1297092-0.1900253,0.1532841-0.3200016,0.159996
			c-0.0208683-0.0277805-0.0417576-0.0555439-0.0622005-0.0826435c0.1067848-0.0531425,0.2130985-0.1069355,0.319416-0.1607285
			C20.4400368,17.706974,20.4609661,17.734766,20.4818726,17.7625751z"/>
		<path style="fill:#522F2D;" d="M20.161871,17.9225712c-0.0684795,0.1297092-0.1900234,0.1532879-0.3200016,0.1599979
			c-0.0208664-0.0277805-0.0417557-0.0555458-0.0621986-0.0826416c0.106823-0.0531178,0.2131767-0.106884,0.3195305-0.1606503
			C20.1201134,17.8670273,20.1410027,17.8947906,20.161871,17.9225712z"/>
		<path style="fill:#522F2D;" d="M19.8418694,18.0825691c-0.0684776,0.1297092-0.1900215,0.1532898-0.3199997,0.1599998
			c-0.0208664-0.0277805-0.0417557-0.0555458-0.0621986-0.0826416c0.106823-0.0531178,0.2131767-0.1068821,0.3195305-0.1606503
			C19.8001137,18.0270233,19.821003,18.0547886,19.8418694,18.0825691z"/>
		<path style="fill:#522F2D;" d="M19.5218697,18.242569c-0.0684776,0.1297092-0.1900215,0.1532898-0.3199997,0.1599998
			c-0.0208664-0.0277805-0.0417557-0.0555458-0.0621986-0.0826416c0.106823-0.0531178,0.2131767-0.1068821,0.3195305-0.1606503
			C19.480114,18.1870232,19.5010033,18.2147884,19.5218697,18.242569z"/>
		<path style="fill:#522F2D;" d="M19.20187,18.4025688c-0.0684776,0.1297112-0.1900215,0.1532898-0.3199997,0.1599998
			c-0.0208664-0.0277805-0.0417576-0.0555439-0.0622005-0.0826416c0.1068249-0.0531158,0.2131786-0.1068821,0.3195324-0.1606503
			C19.1601143,18.347023,19.1810036,18.3747883,19.20187,18.4025688z"/>
		<path style="fill:#522F2D;" d="M18.8818703,18.5625687c-0.0684776,0.1297112-0.1900215,0.1532898-0.3199997,0.1600018
			c-0.0208664-0.0277824-0.0417576-0.0555458-0.0622005-0.0826435c0.1068249-0.0531158,0.2131786-0.1068821,0.3195324-0.1606503
			C18.8401127,18.5070248,18.8610039,18.5347881,18.8818703,18.5625687z"/>
		<path style="fill:#522F2D;" d="M18.5618706,18.7225704c-0.0684776,0.1297092-0.1900215,0.1532898-0.3199997,0.1599998
			c-0.0208683-0.0277805-0.0417576-0.0555458-0.0622005-0.0826435c0.106823-0.0531158,0.2131767-0.1068821,0.3195305-0.1606503
			C18.520113,18.6670246,18.5410042,18.694788,18.5618706,18.7225704z"/>
		<path style="fill:#522F2D;" d="M18.2418709,18.8825703c-0.0684757,0.1297169-0.1900234,0.1532841-0.3199997,0.1599979
			c-0.0208683-0.0277786-0.0417576-0.0555439-0.0622005-0.0826416c0.106823-0.0531158,0.2131767-0.1068821,0.3195305-0.1606483
			C18.2001133,18.8270245,18.2210026,18.8547897,18.2418709,18.8825703z"/>
		<path style="fill:#522F2D;" d="M22.1677837,11.2873592c-0.0975399-0.055459-0.1950779-0.110918-0.2928009-0.1657724
			C22.0417156,11.0544004,22.1789875,11.0391941,22.1677837,11.2873592z"/>
		<path style="fill:#522F2D;" d="M17.9218712,19.0425682c-0.0684757,0.1297131-0.1900215,0.1532898-0.3199978,0.1600018
			c-0.0208683-0.0277805-0.0417576-0.0555458-0.0622005-0.0826435c0.106823-0.0531158,0.2131748-0.106884,0.3195286-0.1606483
			C17.8801136,18.9870243,17.9010029,19.0147896,17.9218712,19.0425682z"/>
		<path style="fill:#522F2D;" d="M22.7935104,11.6139622c-0.0926933-0.0539217-0.1853886-0.1078444-0.2783356-0.1611347
			C22.6826897,11.3769503,22.8207283,11.3520384,22.7935104,11.6139622z"/>
		<path style="fill:#522F2D;" d="M17.6018734,19.20257c-0.0684929,0.1297207-0.1900425,0.153286-0.320034,0.1599636
			c-0.0211391-0.0282097-0.0423031-0.0564003-0.0630188-0.0839138c0.107111-0.0526752,0.213747-0.1060104,0.3203831-0.1593418
			C17.5601158,19.1470242,17.5810051,19.1747894,17.6018734,19.20257z"/>
		<path style="fill:#522F2D;" d="M17.2818394,19.3625336c-0.068449,0.1297684-0.1900063,0.1533165-0.3199978,0.1600018
			c-0.0211792-0.0282497-0.0423832-0.0564842-0.0631351-0.0840416c0.106863-0.053072,0.2132511-0.106802,0.3196411-0.160532
			C17.2395363,19.3061333,17.2607002,19.3343239,17.2818394,19.3625336z"/>
		<path style="fill:#522F2D;" d="M16.9618416,19.5225353c-0.0684471,0.1297703-0.1900101,0.1533127-0.3199997,0.1599998
			c-0.0211906-0.0282555-0.0424042-0.0564919-0.0631657-0.0840511c0.1068344-0.0531101,0.2131958-0.1068802,0.3195553-0.1606503
			C16.9194584,19.4660511,16.9406624,19.4942856,16.9618416,19.5225353z"/>
		<path style="fill:#522F2D;" d="M15.6743164,11.6735659c0.0706692-0.1254873,0.1924076-0.1487064,0.3201075-0.159936
			c0.0205297,0.026536,0.0409784,0.0532351,0.0609465,0.0795527c-0.1067762,0.0526838-0.213212,0.105854-0.3196468,0.1590242
			C15.7153797,11.7258949,15.69491,11.6996813,15.6743164,11.6735659z"/>
		<path style="fill:#522F2D;" d="M23.1099911,11.7761879c-0.0917492-0.053895-0.1834946-0.1077909-0.2755089-0.1610508
			C23.0026932,11.5376368,23.141428,11.5106363,23.1099911,11.7761879z"/>
		<path style="fill:#522F2D;" d="M16.6418419,19.6825352c-0.068449,0.1297703-0.1900101,0.1533127-0.3199997,0.1599998
			c-0.0211906-0.0282631-0.0424061-0.0565071-0.0631695-0.0840702c0.1068268-0.0531063,0.2131786-0.1068745,0.3195286-0.1606407
			C16.5994377,19.6260433,16.6206512,19.6542797,16.6418419,19.6825352z"/>
		<path style="fill:#522F2D;" d="M16.3218422,19.842535c-0.0684509,0.1297646-0.1900043,0.1533165-0.3199978,0.1599903
			c-0.0214062-0.0281448-0.0428381-0.0562706-0.0642967-0.0843792c0.1068821-0.0534477,0.2137661-0.1068954,0.3206501-0.1603432
			C16.2794361,19.7860279,16.3006516,19.8142719,16.3218422,19.842535z"/>
		<path style="fill:#522F2D;" d="M21.7618465,17.1225338c-0.0683289,0.1296005-0.1899929,0.1526966-0.3195267,0.1600533
			c-0.0211334-0.0277252-0.042223-0.0555305-0.0627689-0.082737c0.106535-0.0535545,0.2126026-0.1077595,0.3186684-0.1619663
			C21.71945,17.0660858,21.7406597,17.0943012,21.7618465,17.1225338z"/>
		<path style="fill:#522F2D;" d="M15.6823425,20.1626091c-0.068387,0.1299477-0.190402,0.1526012-0.3200331,0.1599903
			c-0.0211315-0.0282822-0.0422115-0.0566463-0.0627489-0.0843964c0.1068077-0.0525608,0.2131491-0.1057949,0.3194914-0.1590309
			C15.6400766,20.1070404,15.6611748,20.1348515,15.6823425,20.1626091z"/>
		<path style="fill:#522F2D;" d="M15.3544254,11.8336849c0.0705357-0.1255932,0.1922617-0.1488056,0.3199444-0.160059
			c0.0205402,0.0260553,0.0410099,0.052269,0.0610085,0.0781136c-0.1068048,0.0531368-0.2132664,0.106741-0.319726,0.1603441
			C15.3953667,11.8858547,15.3749571,11.8597221,15.3544254,11.8336849z"/>
		<path style="fill:#522F2D;" d="M23.4220524,11.938756c-0.0893841-0.0536985-0.1787682-0.1073971-0.2684383-0.1604548
			C23.321373,11.7002726,23.4631367,11.6657858,23.4220524,11.938756z"/>
		<path style="fill:#522F2D;" d="M15.0344267,11.9936857c0.0705757-0.1256208,0.1923018-0.1488333,0.3200512-0.1599417
			c0.0204792,0.0259781,0.0408888,0.0521107,0.0608301,0.0778732c-0.1068115,0.0531645-0.2132778,0.1067934-0.3197441,0.1604223
			C15.0753059,12.0458279,15.0549278,12.0197096,15.0344267,11.9936857z"/>
		<path style="fill:#522F2D;" d="M12.8145533,22.0583725c0.1355162-0.0044193,0.2564621,0.020092,0.3190393,0.1605225
			C12.9931002,22.2333202,12.8680944,22.2169266,12.8145533,22.0583725z"/>
		<path style="fill:#522F2D;" d="M14.5639181,22.0844536c-0.0699348,0.1270599-0.1913939,0.1508522-0.3202276,0.1598263
			c-0.0182533-0.0242481-0.0364428-0.0486107-0.0541687-0.0725021c0.0998545-0.053484,0.1993456-0.1075153,0.2988348-0.1615429
			C14.5136461,22.0348701,14.5388327,22.0596085,14.5639181,22.0844536z"/>
		<path style="fill:#522F2D;" d="M14.7148485,12.1532068c0.0712547-0.1239395,0.1920452-0.1485386,0.3196306-0.1594629
			c0.0204487,0.0259657,0.0408268,0.052084,0.0607405,0.0778313c-0.10744,0.0518503-0.2145357,0.104166-0.3216333,0.1564827
			C14.7539501,12.2031517,14.7343712,12.1782007,14.7148485,12.1532068z"/>
		<path style="fill:#522F2D;" d="M16.0018444,20.0025253c-0.0683212,0.129612-0.1899891,0.1527023-0.3195248,0.160059
			c-0.0211449-0.0277328-0.042243-0.0555439-0.0627985-0.0827579c0.1063232-0.0534592,0.2121744-0.1075687,0.3180265-0.1616783
			C15.9590063,19.9462547,15.9804382,19.9743805,16.0018444,20.0025253z"/>
		<path style="fill:#522F2D;" d="M23.6744709,12.0770683c-0.0693493-0.0552826-0.1386986-0.1105652-0.2082291-0.1655054
			C23.5958748,11.8908176,23.6475639,11.9683084,23.6744709,12.0770683z"/>
		<path style="fill:#D52744;" d="M14.7735863,12.2280569c0.1070976-0.0523157,0.2141933-0.1046314,0.3216333-0.1564817
			c0.1068106-0.0531645,0.2132769-0.1067934,0.3200884-0.1599579c0.1068039-0.0531368,0.2132654-0.106741,0.3200703-0.1598778
			c0.1067801-0.0527029,0.2132158-0.1058731,0.3199921-0.1585569c0.2018299-0.1028643,0.4820995-0.0004911,0.6311436-0.2409363
			c1.5999622,0.9164925,3.2174206,1.7996922,4.8848591,2.5890827c0.0674477,0.0443745,0.1346188,0.0887909,0.201786,0.1332073
			c0,0.000001,0.0036278-0.0210485,0.0035934-0.0210276c-0.0887871,0.3028879-0.3803787,0.3561668-0.6081123,0.4712381
			c-2.3043842,1.1643648-4.6178074,2.310935-6.917098,3.4852018c-0.4420166,0.2257404-0.8106489,0.2639847-1.26859,0.0254593
			c-1.572073-0.8188362-3.1650105-1.5976124-4.8173552-2.4254055c1.6204224-0.8389072,3.1529379-1.6323051,4.685751-2.4253073
			c0.1063519-0.0529203,0.2124081-0.1062346,0.3187542-0.1591434c0.2380276-0.0586815,0.4615631-0.145834,0.6397791-0.3227139
			c0.1065569-0.0529442,0.2128296-0.1062641,0.3193865-0.1592007c0.106986-0.0529051,0.2136917-0.1061945,0.3206835-0.159091
			C14.5580215,12.3326445,14.665803,12.2803507,14.7735863,12.2280569z"/>
		<path style="fill:#D52744;" d="M22.0786304,15.7636623c-0.0477581,0.0628939-0.0818806,0.1527805-0.1452427,0.1847973
			c-2.6573448,1.3428192-5.3173065,2.6804638-7.9888115,4.0247231c-0.3184681-1.184864-0.2828894-1.2586498,0.7204494-1.7645702
			c2.4713516-1.2461472,4.9408035-2.4960623,7.4112167-3.7447796
			C22.0771713,14.8968983,22.0778999,15.3302803,22.0786304,15.7636623z"/>
		<path style="fill:#D52744;" d="M13.3926144,20.016222c-1.57057-0.7778683-3.0420542-1.5118065-4.5182753-2.2360916
			c-1.0795116-0.529644-1.0822878-0.5239849-0.9513812-1.8673706c1.7609487,0.8797855,3.5084958,1.7192059,5.2198329,2.6268978
			C13.7099085,18.840456,13.3512697,19.4266911,13.3926144,20.016222z"/>
		<path style="fill:#A77B4B;" d="M15.9375477,19.9181461c-0.1058521,0.0541115-0.2117033,0.1082211-0.3180265,0.1616783
			c-0.1068115,0.0525837-0.2131529,0.1058178-0.3199606,0.1583786c-0.1497231,0.0676556-0.2989798,0.1359844-0.4484301,0.2040501
			c-0.6082191,0.4105473-0.1063967,1.0769825-0.3622093,1.5685139c-0.1000538,0.0534954-0.1995449,0.1075268-0.2993994,0.1610107
			c-0.128974,0.0271587-0.2842264,0.0796776-0.3580065-0.0631199c-0.3280106-0.6348343,0.0291185-1.6759224,0.6761332-1.999773
			c3.2343273-1.6188812,6.4688015-3.2374783,9.7042046-4.8542042c0.2093449-0.1046095,0.4269466-0.1926937,0.7182178-0.3231897
			c-0.0187321,0.6602726,0.2202969,1.2563314-0.1728878,1.8105192c-0.153265,0.017231-0.2817879-0.0296364-0.2631454-0.2015476
			c0.1175537-1.0839968-0.3996162-0.7768288-0.9857445-0.4870453c-0.4055767,0.2005157-0.8064137,0.3981991-1.1723137,0.6641006
			c-0.1059399,0.0534401-0.2113819,0.1075535-0.317297,0.1610069c-0.1068192,0.0531197-0.2131672,0.1068993-0.3199863,0.160017
			c-0.1065426,0.0535488-0.2126102,0.1077538-0.3191452,0.1613083c-0.1070633,0.0527058-0.2136555,0.1060638-0.3207207,0.1587639
			c-0.1068707,0.053091-0.2132664,0.1068382-0.3201332,0.1599255c-0.1065407,0.0535488-0.2126064,0.1077557-0.3191414,0.1613121
			c-0.1067867,0.0531406-0.2131004,0.1069336-0.3198853,0.1600761c-0.106823,0.0531158-0.2131767,0.1068821-0.3199997,0.1599998
			s-0.2131767,0.1068821-0.3199997,0.1599998s-0.2131767,0.1068821-0.3199997,0.1599998s-0.2131767,0.106884-0.3200016,0.1599998
			c-0.1068211,0.0531178-0.2131748,0.106884-0.3199997,0.1600018c-0.106823,0.0531158-0.2131767,0.1068821-0.3199997,0.1599998
			c-0.106823,0.0531158-0.2131767,0.1068821-0.3199997,0.1599979s-0.2131748,0.106884-0.3199978,0.1599998
			c-0.1071053,0.0526829-0.2137413,0.1060181-0.3208523,0.1586933c-0.106863,0.053072-0.2132511,0.106802-0.3201141,0.159874
			c-0.1068344,0.0531101-0.2131958,0.1068802-0.3200302,0.1599903c-0.1068249,0.0531063-0.2131767,0.1068745-0.3200035,0.1599789
			C16.1513138,19.8112507,16.0444298,19.8646984,15.9375477,19.9181461z"/>
		<path style="fill:#D9DADC;" d="M22.0786304,15.7636623c-0.0007305-0.433382-0.0014591-0.8667641-0.002388-1.2998285
			c0.7821293-0.3982677,1.5706921-0.7852287,2.3441505-1.2003403c0.3870468-0.2077255,0.5382919-0.1988926,0.5621872,0.3109112
			c0.0289803,0.6181583-0.0740204,1.0690365-0.738966,1.2805748C23.4973373,15.0923929,22.9074192,15.7130699,22.0786304,15.7636623
			z"/>
		<path style="fill:#522F2D;" d="M21.773159,14.0745363c-0.0671673-0.0444164-0.1343384-0.0888329-0.201786-0.1332073
			C21.6767082,13.927701,21.7998829,13.8873901,21.773159,14.0745363z"/>
	</g>
</g>
</svg>
